<?xml version="1.0" encoding="UTF-8"?>
<svg width="1440px" height="788px" viewBox="0 0 1440 788" version="1.1" xmlns="http://www.w3.org/2000/svg" xmlns:xlink="http://www.w3.org/1999/xlink">
    <title>bg-grid</title>
    <defs>
        <linearGradient x1="50%" y1="0%" x2="50%" y2="99.228076%" id="linearGradient-1">
            <stop stop-color="#C5C5CB" offset="0%"></stop>
            <stop stop-color="#8DD3D1" offset="18.5954659%"></stop>
            <stop stop-color="#00F7E2" offset="100%"></stop>
        </linearGradient>
        <rect id="path-2" x="0" y="0" width="1440" height="261"></rect>
        <linearGradient x1="50%" y1="0%" x2="50%" y2="99.228076%" id="linearGradient-4">
            <stop stop-color="#C5C5CB" offset="0%"></stop>
            <stop stop-color="#8DD3D1" offset="18.5954659%"></stop>
            <stop stop-color="#00F7E2" offset="100%"></stop>
        </linearGradient>
        <rect id="path-5" x="0" y="0" width="1440" height="525"></rect>
    </defs>
    <g id="Page-1" stroke="none" stroke-width="1" fill="none" fill-rule="evenodd">
        <g id="Desktop-HD-Copy-8" transform="translate(0.000000, -471.000000)">
            <g id="bg-grid" transform="translate(0.000000, 471.000000)">
                <g id="Group-2">
                    <rect id="Rectangle" fill="url(#linearGradient-1)" x="0" y="0" width="1440" height="261"></rect>
                    <mask id="mask-3" fill="white">
                        <use xlink:href="#path-2"></use>
                    </mask>
                    <g id="Rectangle"></g>
                    <g id="Group" mask="url(#mask-3)" stroke="#ED29EE" stroke-width="2">
                        <g transform="translate(-3355.000000, -1337.000000)" id="Path">
                            <line x1="4077" y1="2099.5" x2="3336" y2="2099.5"></line>
                            <line x1="4818" y1="2099.5" x2="4077" y2="2099.5"></line>
                            <line x1="4743" y1="2012.5" x2="4077" y2="2012.5"></line>
                            <line x1="5415" y1="2012.5" x2="4749" y2="2012.5"></line>
                            <line x1="4077" y1="2012.5" x2="3411" y2="2012.5"></line>
                            <line x1="3410" y1="2012.5" x2="2744" y2="2012.5"></line>
                            <line x1="4077" y1="1931.5" x2="3479" y2="1931.5"></line>
                            <line x1="5277" y1="1931.5" x2="4679" y2="1931.5"></line>
                            <line x1="3479" y1="1931.5" x2="2877" y2="1931.5"></line>
                            <line x1="4679" y1="1931.5" x2="4081" y2="1931.5"></line>
                            <line x1="4624" y1="1860.5" x2="4083" y2="1860.5"></line>
                            <line x1="4622" y1="1860.5" x2="5163" y2="1860.5"></line>
                            <line x1="4081" y1="1860.5" x2="3540" y2="1860.5"></line>
                            <line x1="3542" y1="1860.5" x2="3001" y2="1860.5"></line>
                            <line x1="3595" y1="1795.5" x2="3107" y2="1795.5"></line>
                            <line x1="5053" y1="1795.5" x2="4567" y2="1795.5"></line>
                            <line x1="4083" y1="1795.5" x2="4569" y2="1795.5"></line>
                            <line x1="4083" y1="1795.5" x2="3597" y2="1795.5"></line>
                            <line x1="4959" y1="1737.5" x2="4522" y2="1737.5"></line>
                            <line x1="4520" y1="1737.5" x2="4083" y2="1737.5"></line>
                            <line x1="3644" y1="1737.5" x2="4081" y2="1737.5"></line>
                            <line x1="3646" y1="1737.5" x2="3207" y2="1737.5"></line>
                            <line x1="4085" y1="1684.5" x2="3691" y2="1684.5"></line>
                            <line x1="3297" y1="1684.5" x2="3691" y2="1684.5"></line>
                            <line x1="4477" y1="1684.5" x2="4871" y2="1684.5"></line>
                            <line x1="4475" y1="1684.5" x2="4081" y2="1684.5"></line>
                            <line x1="4085" y1="1637.5" x2="4438" y2="1637.5"></line>
                            <line x1="4791" y1="1637.5" x2="4438" y2="1637.5"></line>
                            <line x1="4085" y1="1637.5" x2="3732" y2="1637.5"></line>
                            <line x1="3730" y1="1637.5" x2="3373" y2="1637.5"></line>
                            <line x1="3018" y1="1637.5" x2="3375" y2="1637.5"></line>
                            <line x1="5145" y1="1637.5" x2="4792" y2="1637.5"></line>
                            <line x1="3767" y1="1596.5" x2="3446" y2="1596.5"></line>
                            <line x1="4722" y1="1596.5" x2="4404" y2="1596.5"></line>
                            <line x1="3448" y1="1596.5" x2="3127" y2="1596.5"></line>
                            <line x1="5040" y1="1596.5" x2="4722" y2="1596.5"></line>
                            <line x1="3767" y1="1596.5" x2="4085" y2="1596.5"></line>
                            <line x1="4403" y1="1596.5" x2="4085" y2="1596.5"></line>
                            <line x1="3508" y1="1558.5" x2="3220" y2="1558.5"></line>
                            <line x1="4657" y1="1558.5" x2="4373" y2="1558.5"></line>
                            <line x1="4941" y1="1558.5" x2="4657" y2="1558.5"></line>
                            <line x1="4369" y1="1558.5" x2="4085" y2="1558.5"></line>
                            <line x1="4085" y1="1558.5" x2="3801" y2="1558.5"></line>
                            <line x1="3507" y1="1558.5" x2="3795" y2="1558.5"></line>
                            <line x1="3826" y1="1522.5" x2="3567" y2="1522.5"></line>
                            <line x1="4602" y1="1522.5" x2="4343" y2="1522.5"></line>
                            <line x1="4859" y1="1522.5" x2="4600" y2="1522.5"></line>
                            <line x1="4344" y1="1522.5" x2="4085" y2="1522.5"></line>
                            <line x1="4085" y1="1522.5" x2="3826" y2="1522.5"></line>
                            <line x1="3308" y1="1522.5" x2="3567" y2="1522.5"></line>
                            <line x1="4318" y1="1491.5" x2="4085" y2="1491.5"></line>
                            <line x1="4781" y1="1491.5" x2="4548" y2="1491.5"></line>
                            <line x1="4781" y1="1491.5" x2="5008" y2="1491.5"></line>
                            <line x1="3142" y1="1491.5" x2="3385" y2="1491.5"></line>
                            <line x1="3618" y1="1491.5" x2="3385" y2="1491.5"></line>
                            <line x1="3855" y1="1491.5" x2="3622" y2="1491.5"></line>
                            <line x1="4551" y1="1491.5" x2="4318" y2="1491.5"></line>
                            <line x1="4085" y1="1491.5" x2="3852" y2="1491.5"></line>
                            <line x1="3667" y1="1464.5" x2="3457" y2="1464.5"></line>
                            <line x1="3875" y1="1464.5" x2="3665" y2="1464.5"></line>
                            <line x1="4085" y1="1464.5" x2="3877" y2="1464.5"></line>
                            <line x1="4293" y1="1464.5" x2="4085" y2="1464.5"></line>
                            <line x1="4502" y1="1464.5" x2="4294" y2="1464.5"></line>
                            <line x1="3236" y1="1464.5" x2="3456" y2="1464.5"></line>
                            <line x1="4712" y1="1464.5" x2="4914" y2="1464.5"></line>
                            <line x1="4712" y1="1464.5" x2="4504" y2="1464.5"></line>
                            <line x1="4273" y1="1439.5" x2="4085" y2="1439.5"></line>
                            <line x1="4461" y1="1439.5" x2="4273" y2="1439.5"></line>
                            <line x1="3320" y1="1439.5" x2="3520" y2="1439.5"></line>
                            <line x1="4459" y1="1439.5" x2="4647" y2="1439.5"></line>
                            <line x1="4647" y1="1439.5" x2="4829" y2="1439.5"></line>
                            <line x1="3901" y1="1439.5" x2="3709" y2="1439.5"></line>
                            <line x1="4085" y1="1439.5" x2="3897" y2="1439.5"></line>
                            <line x1="3708" y1="1439.5" x2="3516" y2="1439.5"></line>
                            <line x1="4085" y1="1417.5" x2="3918" y2="1417.5"></line>
                            <line x1="4591" y1="1417.5" x2="4424" y2="1417.5"></line>
                            <line x1="4257" y1="1417.5" x2="4424" y2="1417.5"></line>
                            <line x1="4754" y1="1366" x2="4754" y2="1316"></line>
                            <polyline points="3395.9995 1368 3395.9995 1418 3396.0005 1418"></polyline>
                            <line x1="3748" y1="1417.5" x2="3577" y2="1417.5"></line>
                            <line x1="3395" y1="1417.5" x2="3577" y2="1417.5"></line>
                            <polyline points="4753.9995 1418 4754.0005 1418 4754.0005 1368"></polyline>
                            <line x1="3918" y1="1417.5" x2="3747" y2="1417.5"></line>
                            <line x1="4592" y1="1417.5" x2="4755" y2="1417.5"></line>
                            <line x1="4252" y1="1417.5" x2="4085" y2="1417.5"></line>
                            <line x1="3396" y1="1316" x2="3396" y2="1366"></line>
                            <line x1="3463" y1="1398.5" x2="3628" y2="1398.5"></line>
                            <line x1="3466" y1="1396" x2="3466" y2="1351"></line>
                            <line x1="3934" y1="1398.5" x2="3783" y2="1398.5"></line>
                            <line x1="4085" y1="1398.5" x2="4236" y2="1398.5"></line>
                            <line x1="3779" y1="1398.5" x2="3628" y2="1398.5"></line>
                            <line x1="3466" y1="1306" x2="3466" y2="1351"></line>
                            <line x1="4391" y1="1398.5" x2="4240" y2="1398.5"></line>
                            <line x1="4684" y1="1351" x2="4684" y2="1306"></line>
                            <line x1="4087" y1="1398.5" x2="3936" y2="1398.5"></line>
                            <line x1="4391" y1="1398.5" x2="4542" y2="1398.5"></line>
                            <line x1="4684" y1="1396" x2="4684" y2="1351"></line>
                            <line x1="4542" y1="1398.5" x2="4687" y2="1398.5"></line>
                            <line x1="3951" y1="1377.5" x2="3812" y2="1377.5"></line>
                            <line x1="4623" y1="1338" x2="4623" y2="1298"></line>
                            <line x1="3952" y1="1377.5" x2="4089" y2="1377.5"></line>
                            <line x1="4224" y1="1377.5" x2="4087" y2="1377.5"></line>
                            <polyline points="3526.9995 1338 3526.9995 1378 3527.0005 1378"></polyline>
                            <line x1="4496" y1="1377.5" x2="4359" y2="1377.5"></line>
                            <line x1="4497" y1="1377.5" x2="4626" y2="1377.5"></line>
                            <line x1="4224" y1="1377.5" x2="4361" y2="1377.5"></line>
                            <polyline points="4622.9995 1378 4623.0005 1378 4623.0005 1338"></polyline>
                            <line x1="3527" y1="1338" x2="3527" y2="1295"></line>
                            <line x1="3814" y1="1377.5" x2="3675" y2="1377.5"></line>
                            <line x1="3673" y1="1377.5" x2="3524" y2="1377.5"></line>
                            <line x1="3582" y1="1325" x2="3582" y2="1363"></line>
                            <line x1="4453" y1="1362.5" x2="4569" y2="1362.5"></line>
                            <line x1="4453" y1="1362.5" x2="4330" y2="1362.5"></line>
                            <line x1="4568" y1="1363" x2="4568" y2="1325"></line>
                            <line x1="4330" y1="1362.5" x2="4207" y2="1362.5"></line>
                            <line x1="4089" y1="1362.5" x2="4212" y2="1362.5"></line>
                            <line x1="4087" y1="1362.5" x2="3964" y2="1362.5"></line>
                            <line x1="3842" y1="1362.5" x2="3965" y2="1362.5"></line>
                            <line x1="3840" y1="1362.5" x2="3717" y2="1362.5"></line>
                            <line x1="3579" y1="1362.5" x2="3716" y2="1362.5"></line>
                            <line x1="3631" y1="1348" x2="3631" y2="1316"></line>
                            <line x1="3865" y1="1347.5" x2="3751" y2="1347.5"></line>
                            <line x1="3863" y1="1347.5" x2="3977" y2="1347.5"></line>
                            <line x1="3751" y1="1347.5" x2="3628" y2="1347.5"></line>
                            <line x1="4308" y1="1347.5" x2="4196" y2="1347.5"></line>
                            <line x1="4519" y1="1348" x2="4519" y2="1316"></line>
                            <line x1="4418" y1="1347.5" x2="4522" y2="1347.5"></line>
                            <line x1="4418" y1="1347.5" x2="4306" y2="1347.5"></line>
                            <line x1="3977" y1="1347.5" x2="4089" y2="1347.5"></line>
                            <line x1="4199" y1="1347.5" x2="4087" y2="1347.5"></line>
                            <line x1="3579" y1="1363" x2="3526" y2="1380"></line>
                            <line x1="3463" y1="1396" x2="3526" y2="1378"></line>
                            <line x1="3321" y1="1440" x2="3397" y2="1417"></line>
                            <line x1="3464" y1="1398" x2="3395" y2="1417"></line>
                            <line x1="3673" y1="1335" x2="3628" y2="1348"></line>
                            <line x1="3628" y1="1349" x2="3579" y2="1363"></line>
                            <line x1="4687" y1="1396" x2="4624" y2="1378"></line>
                            <line x1="4624" y1="1380" x2="4571" y2="1363"></line>
                            <line x1="4522" y1="1348" x2="4477" y2="1335"></line>
                            <line x1="4571" y1="1363" x2="4522" y2="1349"></line>
                            <line x1="4829" y1="1440" x2="4753" y2="1417"></line>
                            <line x1="4755" y1="1417" x2="4686" y2="1398"></line>
                            <line x1="4624" y1="1338" x2="4571" y2="1325"></line>
                            <line x1="4624" y1="1338" x2="4687" y2="1351"></line>
                            <line x1="4755" y1="1365" x2="4686" y2="1351"></line>
                            <line x1="4753" y1="1368" x2="4829" y2="1385"></line>
                            <line x1="3526" y1="1338" x2="3463" y2="1351"></line>
                            <line x1="3395" y1="1365" x2="3464" y2="1351"></line>
                            <line x1="3579" y1="1325" x2="3526" y2="1338"></line>
                            <line x1="3397" y1="1368" x2="3321" y2="1385"></line>
                            <line x1="3385" y1="1492" x2="3458" y2="1465"></line>
                            <line x1="3516" y1="1440" x2="3577" y2="1417"></line>
                            <line x1="3457" y1="1465" x2="3522" y2="1440"></line>
                            <line x1="3307" y1="1523" x2="3385" y2="1492"></line>
                            <line x1="3628" y1="1396" x2="3673" y2="1378"></line>
                            <line x1="3577" y1="1417" x2="3628" y2="1398"></line>
                            <line x1="3753" y1="1349" x2="3716" y2="1363"></line>
                            <line x1="3716" y1="1363" x2="3675" y2="1380"></line>
                            <line x1="3787" y1="1335" x2="3754" y2="1348"></line>
                            <line x1="3375" y1="1640" x2="3448" y2="1597"></line>
                            <line x1="3295" y1="1687" x2="3375" y2="1640"></line>
                            <line x1="3446" y1="1596" x2="3511" y2="1558"></line>
                            <line x1="3887" y1="1335" x2="3863" y2="1348"></line>
                            <line x1="3667" y1="1465" x2="3708" y2="1440"></line>
                            <line x1="3506" y1="1557" x2="3567" y2="1523"></line>
                            <line x1="3567" y1="1523" x2="3618" y2="1492"></line>
                            <line x1="3620" y1="1492" x2="3665" y2="1465"></line>
                            <line x1="3865" y1="1349" x2="3840" y2="1363"></line>
                            <line x1="3781" y1="1396" x2="3814" y2="1378"></line>
                            <line x1="3815" y1="1380" x2="3842" y2="1363"></line>
                            <line x1="3744" y1="1417" x2="3779" y2="1398"></line>
                            <line x1="3709" y1="1440" x2="3746" y2="1417"></line>
                            <line x1="3951" y1="1380" x2="3963" y2="1363"></line>
                            <line x1="3965" y1="1363" x2="3977" y2="1349"></line>
                            <line x1="3762" y1="1596" x2="3795" y2="1558"></line>
                            <line x1="3987" y1="1335" x2="3977" y2="1348"></line>
                            <line x1="3830" y1="1523" x2="3855" y2="1492"></line>
                            <line x1="3875" y1="1465" x2="3899" y2="1440"></line>
                            <line x1="3936" y1="1396" x2="3952" y2="1378"></line>
                            <line x1="3898" y1="1440" x2="3916" y2="1417"></line>
                            <line x1="3797" y1="1557" x2="3824" y2="1523"></line>
                            <line x1="3920" y1="1417" x2="3936" y2="1398"></line>
                            <line x1="3691" y1="1687" x2="3728" y2="1640"></line>
                            <line x1="3410" y1="2010" x2="3479" y2="1931"></line>
                            <line x1="3479" y1="1931" x2="3542" y2="1860"></line>
                            <line x1="3542" y1="1860" x2="3595" y2="1795"></line>
                            <line x1="3855" y1="1492" x2="3879" y2="1465"></line>
                            <line x1="3595" y1="1796" x2="3644" y2="1738"></line>
                            <line x1="3728" y1="1640" x2="3763" y2="1597"></line>
                            <line x1="3334" y1="2098" x2="3410" y2="2010"></line>
                            <line x1="3644" y1="1738" x2="3689" y2="1686"></line>
                            <line x1="4085.9095" y1="1348" x2="4086.0905" y2="1335"></line>
                            <line x1="4085.9" y1="1363" x2="4086.1" y2="1349"></line>
                            <line x1="4085.83" y1="1465" x2="4086.17" y2="1440"></line>
                            <line x1="4085.79" y1="1523" x2="4086.21" y2="1492"></line>
                            <line x1="4085.812" y1="1492" x2="4086.188" y2="1465"></line>
                            <line x1="4085.8625" y1="1417" x2="4086.1375" y2="1398"></line>
                            <line x1="4085.847" y1="1440" x2="4086.153" y2="1417"></line>
                            <line x1="4081.7125" y1="1640" x2="4082.2875" y2="1597"></line>
                            <line x1="4085.767" y1="1557" x2="4086.233" y2="1523"></line>
                            <line x1="4081.741" y1="1596" x2="4082.259" y2="1558"></line>
                            <line x1="4085.8765" y1="1396" x2="4086.1235" y2="1378"></line>
                            <line x1="4079.3985" y1="2098" x2="4080.6015" y2="2010"></line>
                            <line x1="4079.459" y1="2010" x2="4080.541" y2="1931"></line>
                            <line x1="4085.888" y1="1380" x2="4086.112" y2="1363"></line>
                            <line x1="4079.513" y1="1931" x2="4080.487" y2="1860"></line>
                            <line x1="4081.5615" y1="1860" x2="4082.4385" y2="1795"></line>
                            <line x1="4077.3325" y1="2198" x2="4078.6675" y2="2098"></line>
                            <line x1="4081.645" y1="1738" x2="4082.355" y2="1686"></line>
                            <line x1="4081.681" y1="1687" x2="4082.319" y2="1640"></line>
                            <line x1="4081.6055" y1="1796" x2="4082.3945" y2="1738"></line>
                            <line x1="4210" y1="1363" x2="4198" y2="1349"></line>
                            <line x1="4252" y1="1417" x2="4236" y2="1398"></line>
                            <line x1="4293" y1="1465" x2="4275" y2="1440"></line>
                            <line x1="4224" y1="1380" x2="4212" y2="1363"></line>
                            <line x1="4475" y1="1687" x2="4438" y2="1640"></line>
                            <line x1="4240" y1="1396" x2="4224" y2="1378"></line>
                            <line x1="4271" y1="1440" x2="4253" y2="1417"></line>
                            <line x1="4371" y1="1557" x2="4344" y2="1523"></line>
                            <line x1="4404" y1="1596" x2="4371" y2="1558"></line>
                            <line x1="4436" y1="1640" x2="4401" y2="1597"></line>
                            <line x1="4318" y1="1492" x2="4294" y2="1465"></line>
                            <line x1="4681" y1="1931" x2="4620" y2="1860"></line>
                            <line x1="4520" y1="1738" x2="4479" y2="1686"></line>
                            <line x1="4820" y1="2098" x2="4744" y2="2010"></line>
                            <line x1="4567" y1="1796" x2="4518" y2="1738"></line>
                            <line x1="4620" y1="1860" x2="4567" y2="1795"></line>
                            <line x1="4199" y1="1348" x2="4189" y2="1335"></line>
                            <line x1="4343" y1="1523" x2="4318" y2="1492"></line>
                            <line x1="4744" y1="2010" x2="4679" y2="1931"></line>
                            <line x1="4547" y1="1492" x2="4502" y2="1465"></line>
                            <line x1="4871" y1="1687" x2="4793" y2="1640"></line>
                            <line x1="4793" y1="1640" x2="4720" y2="1597"></line>
                            <line x1="4659" y1="1557" x2="4598" y2="1523"></line>
                            <line x1="4500" y1="1465" x2="4459" y2="1440"></line>
                            <line x1="4598" y1="1523" x2="4547" y2="1492"></line>
                            <line x1="4724" y1="1596" x2="4659" y2="1558"></line>
                            <line x1="4459" y1="1440" x2="4422" y2="1417"></line>
                            <line x1="4388" y1="1396" x2="4361" y2="1378"></line>
                            <line x1="4422" y1="1417" x2="4389" y2="1398"></line>
                            <line x1="4359" y1="1380" x2="4334" y2="1363"></line>
                            <line x1="4308" y1="1348" x2="4284" y2="1335"></line>
                            <line x1="4333" y1="1363" x2="4308" y2="1349"></line>
                            <line x1="4453" y1="1363" x2="4418" y2="1349"></line>
                            <line x1="4647" y1="1440" x2="4594" y2="1417"></line>
                            <line x1="4494" y1="1380" x2="4453" y2="1363"></line>
                            <line x1="4541" y1="1396" x2="4496" y2="1378"></line>
                            <line x1="4783" y1="1492" x2="4710" y2="1465"></line>
                            <line x1="4859" y1="1523" x2="4781" y2="1492"></line>
                            <line x1="4591" y1="1417" x2="4540" y2="1398"></line>
                            <line x1="4418" y1="1348" x2="4385" y2="1335"></line>
                            <line x1="4712" y1="1465" x2="4649" y2="1440"></line>
                        </g>
                    </g>
                </g>
                <g id="Group-2" transform="translate(720.000000, 524.500000) scale(1, -1) translate(-720.000000, -524.500000) translate(0.000000, 261.000000)">
                    <rect id="Rectangle" fill="url(#linearGradient-4)" x="0" y="0" width="1440" height="527"></rect>
                    <mask id="mask-6" fill="white">
                        <use xlink:href="#path-5"></use>
                    </mask>
                    <g id="Rectangle"></g>
                    <g id="Group" mask="url(#mask-6)" stroke="#ED29EE" stroke-width="2">
                        <g transform="translate(-3355.000000, -2697.000000)" id="Path">
                            <line x1="4085" y1="3401.58086" x2="3691" y2="3401.58086"></line>
                            <line x1="3297" y1="3401.58086" x2="3691" y2="3401.58086"></line>
                            <line x1="4477" y1="3401.58086" x2="4871" y2="3401.58086"></line>
                            <line x1="4475" y1="3401.58086" x2="4081" y2="3401.58086"></line>
                            <line x1="4085" y1="3306.67181" x2="4438" y2="3306.67181"></line>
                            <line x1="4791" y1="3306.67181" x2="4438" y2="3306.67181"></line>
                            <line x1="4085" y1="3306.67181" x2="3732" y2="3306.67181"></line>
                            <line x1="3730" y1="3306.67181" x2="3373" y2="3306.67181"></line>
                            <line x1="3018" y1="3306.67181" x2="3375" y2="3306.67181"></line>
                            <line x1="5145" y1="3306.67181" x2="4792" y2="3306.67181"></line>
                            <line x1="3767" y1="3223.87881" x2="3446" y2="3223.87881"></line>
                            <line x1="4722" y1="3223.87881" x2="4404" y2="3223.87881"></line>
                            <line x1="3448" y1="3223.87881" x2="3127" y2="3223.87881"></line>
                            <line x1="5040" y1="3223.87881" x2="4722" y2="3223.87881"></line>
                            <line x1="3767" y1="3223.87881" x2="4085" y2="3223.87881"></line>
                            <line x1="4403" y1="3223.87881" x2="4085" y2="3223.87881"></line>
                            <line x1="3508" y1="3147.14383" x2="3220" y2="3147.14383"></line>
                            <line x1="4657" y1="3147.14383" x2="4373" y2="3147.14383"></line>
                            <line x1="4941" y1="3147.14383" x2="4657" y2="3147.14383"></line>
                            <line x1="4369" y1="3147.14383" x2="4085" y2="3147.14383"></line>
                            <line x1="4085" y1="3147.14383" x2="3801" y2="3147.14383"></line>
                            <line x1="3507" y1="3147.14383" x2="3795" y2="3147.14383"></line>
                            <line x1="3826" y1="3074.44753" x2="3567" y2="3074.44753"></line>
                            <line x1="4602" y1="3074.44753" x2="4343" y2="3074.44753"></line>
                            <line x1="4859" y1="3074.44753" x2="4600" y2="3074.44753"></line>
                            <line x1="4344" y1="3074.44753" x2="4085" y2="3074.44753"></line>
                            <line x1="4085" y1="3074.44753" x2="3826" y2="3074.44753"></line>
                            <line x1="3308" y1="3074.44753" x2="3567" y2="3074.44753"></line>
                            <line x1="4318" y1="3011.84794" x2="4085" y2="3011.84794"></line>
                            <line x1="4781" y1="3011.84794" x2="4548" y2="3011.84794"></line>
                            <line x1="4781" y1="3011.84794" x2="5008" y2="3011.84794"></line>
                            <line x1="3142" y1="3011.84794" x2="3385" y2="3011.84794"></line>
                            <line x1="3618" y1="3011.84794" x2="3385" y2="3011.84794"></line>
                            <line x1="3855" y1="3011.84794" x2="3622" y2="3011.84794"></line>
                            <line x1="4551" y1="3011.84794" x2="4318" y2="3011.84794"></line>
                            <line x1="4085" y1="3011.84794" x2="3852" y2="3011.84794"></line>
                            <line x1="3667" y1="2957.32572" x2="3457" y2="2957.32572"></line>
                            <line x1="3875" y1="2957.32572" x2="3665" y2="2957.32572"></line>
                            <line x1="4085" y1="2957.32572" x2="3877" y2="2957.32572"></line>
                            <line x1="4293" y1="2957.32572" x2="4085" y2="2957.32572"></line>
                            <line x1="4502" y1="2957.32572" x2="4294" y2="2957.32572"></line>
                            <line x1="3236" y1="2957.32572" x2="3456" y2="2957.32572"></line>
                            <line x1="4712" y1="2957.32572" x2="4914" y2="2957.32572"></line>
                            <line x1="4712" y1="2957.32572" x2="4504" y2="2957.32572"></line>
                            <line x1="4273" y1="2906.84218" x2="4085" y2="2906.84218"></line>
                            <line x1="4461" y1="2906.84218" x2="4273" y2="2906.84218"></line>
                            <line x1="3320" y1="2906.84218" x2="3520" y2="2906.84218"></line>
                            <line x1="4459" y1="2906.84218" x2="4647" y2="2906.84218"></line>
                            <line x1="4647" y1="2906.84218" x2="4829" y2="2906.84218"></line>
                            <line x1="3901" y1="2906.84218" x2="3709" y2="2906.84218"></line>
                            <line x1="4085" y1="2906.84218" x2="3897" y2="2906.84218"></line>
                            <line x1="3708" y1="2906.84218" x2="3516" y2="2906.84218"></line>
                            <line x1="4085" y1="2862.41667" x2="3918" y2="2862.41667"></line>
                            <line x1="4591" y1="2862.41667" x2="4424" y2="2862.41667"></line>
                            <line x1="4257" y1="2862.41667" x2="4424" y2="2862.41667"></line>
                            <line x1="4754" y1="2758.42058" x2="4754" y2="2657.4535"></line>
                            <polyline points="3395.9995 2762.45926 3395.9995 2863.42634 3396.0005 2863.42634"></polyline>
                            <line x1="3748" y1="2862.41667" x2="3577" y2="2862.41667"></line>
                            <line x1="3395" y1="2862.41667" x2="3577" y2="2862.41667"></line>
                            <polyline points="4753.9995 2863.42634 4754.0005 2863.42634 4754.0005 2762.45926"></polyline>
                            <line x1="3918" y1="2862.41667" x2="3747" y2="2862.41667"></line>
                            <line x1="4592" y1="2862.41667" x2="4755" y2="2862.41667"></line>
                            <line x1="4252" y1="2862.41667" x2="4085" y2="2862.41667"></line>
                            <line x1="3396" y1="2657.4535" x2="3396" y2="2758.42058"></line>
                            <line x1="3463" y1="2824.04918" x2="3628" y2="2824.04918"></line>
                            <line x1="3466" y1="2819.00082" x2="3466" y2="2728.13045"></line>
                            <line x1="3934" y1="2824.04918" x2="3783" y2="2824.04918"></line>
                            <line x1="4085" y1="2824.04918" x2="4236" y2="2824.04918"></line>
                            <line x1="3779" y1="2824.04918" x2="3628" y2="2824.04918"></line>
                            <line x1="3466" y1="2637.26008" x2="3466" y2="2728.13045"></line>
                            <line x1="4391" y1="2824.04918" x2="4240" y2="2824.04918"></line>
                            <line x1="4684" y1="2728.13045" x2="4684" y2="2637.26008"></line>
                            <line x1="4087" y1="2824.04918" x2="3936" y2="2824.04918"></line>
                            <line x1="4391" y1="2824.04918" x2="4542" y2="2824.04918"></line>
                            <line x1="4684" y1="2819.00082" x2="4684" y2="2728.13045"></line>
                            <line x1="4542" y1="2824.04918" x2="4687" y2="2824.04918"></line>
                            <line x1="3951" y1="2781.643" x2="3812" y2="2781.643"></line>
                            <line x1="4623" y1="2701.87901" x2="4623" y2="2621.10535"></line>
                            <line x1="3952" y1="2781.643" x2="4089" y2="2781.643"></line>
                            <line x1="4224" y1="2781.643" x2="4087" y2="2781.643"></line>
                            <polyline points="3526.9995 2701.87901 3526.9995 2782.65267 3527.0005 2782.65267"></polyline>
                            <line x1="4496" y1="2781.643" x2="4359" y2="2781.643"></line>
                            <line x1="4497" y1="2781.643" x2="4626" y2="2781.643"></line>
                            <line x1="4224" y1="2781.643" x2="4361" y2="2781.643"></line>
                            <polyline points="4622.9995 2782.65267 4623.0005 2782.65267 4623.0005 2701.87901"></polyline>
                            <line x1="3527" y1="2701.87901" x2="3527" y2="2615.04733"></line>
                            <line x1="3814" y1="2781.643" x2="3675" y2="2781.643"></line>
                            <line x1="3673" y1="2781.643" x2="3524" y2="2781.643"></line>
                            <line x1="3582" y1="2675.62757" x2="3582" y2="2752.36255"></line>
                            <line x1="4453" y1="2751.35288" x2="4569" y2="2751.35288"></line>
                            <line x1="4453" y1="2751.35288" x2="4330" y2="2751.35288"></line>
                            <line x1="4568" y1="2752.36255" x2="4568" y2="2675.62757"></line>
                            <line x1="4330" y1="2751.35288" x2="4207" y2="2751.35288"></line>
                            <line x1="4089" y1="2751.35288" x2="4212" y2="2751.35288"></line>
                            <line x1="4087" y1="2751.35288" x2="3964" y2="2751.35288"></line>
                            <line x1="3842" y1="2751.35288" x2="3965" y2="2751.35288"></line>
                            <line x1="3840" y1="2751.35288" x2="3717" y2="2751.35288"></line>
                            <line x1="3579" y1="2751.35288" x2="3716" y2="2751.35288"></line>
                            <line x1="3631" y1="2722.07243" x2="3631" y2="2657.4535"></line>
                            <line x1="3865" y1="2721.06276" x2="3751" y2="2721.06276"></line>
                            <line x1="3863" y1="2721.06276" x2="3977" y2="2721.06276"></line>
                            <line x1="3751" y1="2721.06276" x2="3628" y2="2721.06276"></line>
                            <line x1="4308" y1="2721.06276" x2="4196" y2="2721.06276"></line>
                            <line x1="4519" y1="2722.07243" x2="4519" y2="2657.4535"></line>
                            <line x1="4418" y1="2721.06276" x2="4522" y2="2721.06276"></line>
                            <line x1="4418" y1="2721.06276" x2="4306" y2="2721.06276"></line>
                            <line x1="3977" y1="2721.06276" x2="4089" y2="2721.06276"></line>
                            <line x1="4199" y1="2721.06276" x2="4087" y2="2721.06276"></line>
                            <line x1="3579" y1="2752.36255" x2="3526" y2="2786.69136"></line>
                            <line x1="3463" y1="2819.00082" x2="3526" y2="2782.65267"></line>
                            <line x1="3321" y1="2907.85185" x2="3397" y2="2861.407"></line>
                            <line x1="3464" y1="2823.03951" x2="3395" y2="2861.407"></line>
                            <line x1="3673" y1="2695.82099" x2="3628" y2="2722.07243"></line>
                            <line x1="3628" y1="2724.09177" x2="3579" y2="2752.36255"></line>
                            <line x1="4687" y1="2819.00082" x2="4624" y2="2782.65267"></line>
                            <line x1="4624" y1="2786.69136" x2="4571" y2="2752.36255"></line>
                            <line x1="4522" y1="2722.07243" x2="4477" y2="2695.82099"></line>
                            <line x1="4571" y1="2752.36255" x2="4522" y2="2724.09177"></line>
                            <line x1="4829" y1="2907.85185" x2="4753" y2="2861.407"></line>
                            <line x1="4755" y1="2861.407" x2="4686" y2="2823.03951"></line>
                            <line x1="4624" y1="2701.87901" x2="4571" y2="2675.62757"></line>
                            <line x1="4624" y1="2701.87901" x2="4687" y2="2728.13045"></line>
                            <line x1="4755" y1="2756.40123" x2="4686" y2="2728.13045"></line>
                            <line x1="4753" y1="2762.45926" x2="4829" y2="2796.78807"></line>
                            <line x1="3526" y1="2701.87901" x2="3463" y2="2728.13045"></line>
                            <line x1="3395" y1="2756.40123" x2="3464" y2="2728.13045"></line>
                            <line x1="3579" y1="2675.62757" x2="3526" y2="2701.87901"></line>
                            <line x1="3397" y1="2762.45926" x2="3321" y2="2796.78807"></line>
                            <line x1="3385" y1="3012.85761" x2="3458" y2="2958.33539"></line>
                            <line x1="3516" y1="2907.85185" x2="3577" y2="2861.407"></line>
                            <line x1="3457" y1="2958.33539" x2="3522" y2="2907.85185"></line>
                            <line x1="3307" y1="3075.4572" x2="3385" y2="3012.85761"></line>
                            <line x1="3628" y1="2819.00082" x2="3673" y2="2782.65267"></line>
                            <line x1="3577" y1="2861.407" x2="3628" y2="2823.03951"></line>
                            <line x1="3753" y1="2724.09177" x2="3716" y2="2752.36255"></line>
                            <line x1="3716" y1="2752.36255" x2="3675" y2="2786.69136"></line>
                            <line x1="3787" y1="2695.82099" x2="3754" y2="2722.07243"></line>
                            <line x1="3375" y1="3311.72016" x2="3448" y2="3224.88848"></line>
                            <line x1="3295" y1="3406.62922" x2="3375" y2="3311.72016"></line>
                            <line x1="3446" y1="3222.86914" x2="3511" y2="3146.13416"></line>
                            <line x1="3887" y1="2695.82099" x2="3863" y2="2722.07243"></line>
                            <line x1="3667" y1="2958.33539" x2="3708" y2="2907.85185"></line>
                            <line x1="3506" y1="3144.11481" x2="3567" y2="3075.4572"></line>
                            <line x1="3567" y1="3075.4572" x2="3618" y2="3012.85761"></line>
                            <line x1="3620" y1="3012.85761" x2="3665" y2="2958.33539"></line>
                            <line x1="3865" y1="2724.09177" x2="3840" y2="2752.36255"></line>
                            <line x1="3781" y1="2819.00082" x2="3814" y2="2782.65267"></line>
                            <line x1="3815" y1="2786.69136" x2="3842" y2="2752.36255"></line>
                            <line x1="3744" y1="2861.407" x2="3779" y2="2823.03951"></line>
                            <line x1="3709" y1="2907.85185" x2="3746" y2="2861.407"></line>
                            <line x1="3951" y1="2786.69136" x2="3963" y2="2752.36255"></line>
                            <line x1="3965" y1="2752.36255" x2="3977" y2="2724.09177"></line>
                            <line x1="3762" y1="3222.86914" x2="3795" y2="3146.13416"></line>
                            <line x1="3987" y1="2695.82099" x2="3977" y2="2722.07243"></line>
                            <line x1="3830" y1="3075.4572" x2="3855" y2="3012.85761"></line>
                            <line x1="3875" y1="2958.33539" x2="3899" y2="2907.85185"></line>
                            <line x1="3936" y1="2819.00082" x2="3952" y2="2782.65267"></line>
                            <line x1="3898" y1="2907.85185" x2="3916" y2="2861.407"></line>
                            <line x1="3797" y1="3144.11481" x2="3824" y2="3075.4572"></line>
                            <line x1="3920" y1="2861.407" x2="3936" y2="2823.03951"></line>
                            <line x1="3691" y1="3406.62922" x2="3728" y2="3311.72016"></line>
                            <line x1="3855" y1="3012.85761" x2="3879" y2="2958.33539"></line>
                            <line x1="3728" y1="3311.72016" x2="3763" y2="3224.88848"></line>
                            <line x1="3644" y1="3509.61564" x2="3689" y2="3404.60988"></line>
                            <line x1="4085.9095" y1="2722.07243" x2="4086.0905" y2="2695.82099"></line>
                            <line x1="4085.9" y1="2752.36255" x2="4086.1" y2="2724.09177"></line>
                            <line x1="4085.83" y1="2958.33539" x2="4086.17" y2="2907.85185"></line>
                            <line x1="4085.79" y1="3075.4572" x2="4086.21" y2="3012.85761"></line>
                            <line x1="4085.812" y1="3012.85761" x2="4086.188" y2="2958.33539"></line>
                            <line x1="4085.8625" y1="2861.407" x2="4086.1375" y2="2823.03951"></line>
                            <line x1="4085.847" y1="2907.85185" x2="4086.153" y2="2861.407"></line>
                            <line x1="4081.7125" y1="3311.72016" x2="4082.2875" y2="3224.88848"></line>
                            <line x1="4085.767" y1="3144.11481" x2="4086.233" y2="3075.4572"></line>
                            <line x1="4081.741" y1="3222.86914" x2="4082.259" y2="3146.13416"></line>
                            <line x1="4085.8765" y1="2819.00082" x2="4086.1235" y2="2782.65267"></line>
                            <line x1="4085.888" y1="2786.69136" x2="4086.112" y2="2752.36255"></line>
                            <line x1="4081.645" y1="3509.61564" x2="4082.355" y2="3404.60988"></line>
                            <line x1="4081.681" y1="3406.62922" x2="4082.319" y2="3311.72016"></line>
                            <line x1="4210" y1="2752.36255" x2="4198" y2="2724.09177"></line>
                            <line x1="4252" y1="2861.407" x2="4236" y2="2823.03951"></line>
                            <line x1="4293" y1="2958.33539" x2="4275" y2="2907.85185"></line>
                            <line x1="4224" y1="2786.69136" x2="4212" y2="2752.36255"></line>
                            <line x1="4475" y1="3406.62922" x2="4438" y2="3311.72016"></line>
                            <line x1="4240" y1="2819.00082" x2="4224" y2="2782.65267"></line>
                            <line x1="4271" y1="2907.85185" x2="4253" y2="2861.407"></line>
                            <line x1="4371" y1="3144.11481" x2="4344" y2="3075.4572"></line>
                            <line x1="4404" y1="3222.86914" x2="4371" y2="3146.13416"></line>
                            <line x1="4436" y1="3311.72016" x2="4401" y2="3224.88848"></line>
                            <line x1="4318" y1="3012.85761" x2="4294" y2="2958.33539"></line>
                            <line x1="4520" y1="3509.61564" x2="4479" y2="3404.60988"></line>
                            <line x1="4199" y1="2722.07243" x2="4189" y2="2695.82099"></line>
                            <line x1="4343" y1="3075.4572" x2="4318" y2="3012.85761"></line>
                            <line x1="4547" y1="3012.85761" x2="4502" y2="2958.33539"></line>
                            <line x1="4871" y1="3406.62922" x2="4793" y2="3311.72016"></line>
                            <line x1="4793" y1="3311.72016" x2="4720" y2="3224.88848"></line>
                            <line x1="4659" y1="3144.11481" x2="4598" y2="3075.4572"></line>
                            <line x1="4500" y1="2958.33539" x2="4459" y2="2907.85185"></line>
                            <line x1="4598" y1="3075.4572" x2="4547" y2="3012.85761"></line>
                            <line x1="4724" y1="3222.86914" x2="4659" y2="3146.13416"></line>
                            <line x1="4459" y1="2907.85185" x2="4422" y2="2861.407"></line>
                            <line x1="4388" y1="2819.00082" x2="4361" y2="2782.65267"></line>
                            <line x1="4422" y1="2861.407" x2="4389" y2="2823.03951"></line>
                            <line x1="4359" y1="2786.69136" x2="4334" y2="2752.36255"></line>
                            <line x1="4308" y1="2722.07243" x2="4284" y2="2695.82099"></line>
                            <line x1="4333" y1="2752.36255" x2="4308" y2="2724.09177"></line>
                            <line x1="4453" y1="2752.36255" x2="4418" y2="2724.09177"></line>
                            <line x1="4647" y1="2907.85185" x2="4594" y2="2861.407"></line>
                            <line x1="4494" y1="2786.69136" x2="4453" y2="2752.36255"></line>
                            <line x1="4541" y1="2819.00082" x2="4496" y2="2782.65267"></line>
                            <line x1="4783" y1="3012.85761" x2="4710" y2="2958.33539"></line>
                            <line x1="4859" y1="3075.4572" x2="4781" y2="3012.85761"></line>
                            <line x1="4591" y1="2861.407" x2="4540" y2="2823.03951"></line>
                            <line x1="4418" y1="2722.07243" x2="4385" y2="2695.82099"></line>
                            <line x1="4712" y1="2958.33539" x2="4649" y2="2907.85185"></line>
                        </g>
                    </g>
                </g>
            </g>
        </g>
    </g>
</svg>